Coordinates
version=1
nRows=18
nColumns=32
inDegrees=yes

Units are S.I. units (second, meters, Newtons, ...)
If the header above contains a line with 'inDegrees', this indicates whether rotational values are in degrees (yes) or radians (no).

endheader
time	pelvis_tilt	pelvis_list	pelvis_rotation	pelvis_tx	pelvis_ty	pelvis_tz	hip_flexion_r	hip_adduction_r	hip_rotation_r	knee_angle_r	knee_adduction_r	med_cond_adduction_r	lat_cond_adduction_r	patella_r_constrained_knee_angle	ankle_angle_r	subtalar_angle_r	mtp_angle_r	hip_flexion_l	hip_adduction_l	hip_rotation_l	knee_angle_l	knee_adduction_l	med_cond_adduction_l	lat_cond_adduction_l	patella_l_constrained_knee_angle	ankle_angle_l	subtalar_angle_l	mtp_angle_l	lumbar_extension	lumbar_bending	lumbar_rotation
      2.26500000	      7.31704000	    -15.27991420	     99.09972820	      0.21757217	      0.84912704	      2.42417867	     40.84374762	      2.36044557	     29.34630201	      0.92350717	      0.00000000	     -0.00000000	      0.00000000	      0.01611824	    -31.68776764	    -19.64442026	      0.00000000	      8.99344966	     -6.63675728	     -5.95451484	    -13.13998849	     -0.00000000	      0.00000000	     -0.00000000	     -0.22933606	     13.73619211	     18.44585928	      0.00000000	      0.00000000	      0.00000000	      0.00000000
      2.27000000	      7.33131060	    -15.38032694	     99.19736693	      0.21757965	      0.84818219	      2.41793249	     41.11505398	      2.21554372	     29.45063589	      1.16012892	      0.00000000	     -0.00000000	      0.00000000	      0.02024807	    -31.30113358	    -19.64754428	     -0.00000000	      8.75903227	     -6.69912560	     -5.88456542	    -13.28033951	      0.00000000	      0.00000000	     -0.00000000	     -0.23178565	     13.72631791	     18.46130000	     -0.00000000	      0.00000000	      0.00000000	      0.00000000
      2.27500000	      7.38146267	    -15.46835304	     99.31071287	      0.21755696	      0.84727684	      2.41159418	     41.34692133	      2.12095900	     29.52756589	      1.31809353	      0.00000000	      0.00000000	     -0.00000000	      0.02300507	    -30.87924285	    -19.65032778	     -0.00000000	      8.51442786	     -6.80319088	     -5.78077263	    -13.42261810	     -0.00000000	      0.00000000	     -0.00000000	     -0.23426888	     13.70497528	     18.44354400	     -0.00000000	     -0.00000000	      0.00000000	      0.00000000
      2.28000000	      7.46607021	    -15.53811847	     99.40999435	      0.21759924	      0.84642118	      2.40512711	     41.53639006	      2.10339130	     29.61809656	      1.39770341	      0.00000000	      0.00000000	     -0.00000000	      0.02439453	    -30.47944438	    -19.65205113	     -0.00000000	      8.24323284	     -6.95599293	     -5.68624566	    -13.55260999	     -0.00000000	     -0.00000000	      0.00000000	     -0.23653767	     13.63235748	     18.44354905	      0.00000000	     -0.00000000	      0.00000000	      0.00000000
      2.28500000	      7.57221267	    -15.55402564	     99.50672006	      0.21764874	      0.84569120	      2.39851033	     41.63703895	      2.13621471	     29.72810744	      1.40231434	      0.00000000	      0.00000000	     -0.00000000	      0.02447500	    -29.97559215	    -19.65234546	     -0.00000000	      7.92024596	     -7.14915999	     -5.62401086	    -13.69654239	      0.00000000	     -0.00000000	      0.00000000	     -0.23904976	     13.49314314	     18.43893601	     -0.00000000	     -0.00000000	      0.00000000	      0.00000000
      2.29000000	      7.72702219	    -15.53653690	     99.60966707	      0.21774059	      0.84501716	      2.39174010	     41.68000758	      2.25078240	     29.82136850	      1.32131862	      0.00000000	      0.00000000	     -0.00000000	      0.02306136	    -29.44901989	    -19.65138132	      0.00000000	      7.55865678	     -7.40695448	     -5.55357459	    -13.82682783	      0.00000000	      0.00000000	     -0.00000000	     -0.24132367	     13.30987922	     18.44145096	     -0.00000000	     -0.00000000	      0.00000000	      0.00000000
      2.29500000	      7.88866080	    -15.49274669	     99.70158496	      0.21788972	      0.84443155	      2.38485454	     41.67227529	      2.41252388	     29.93099683	      1.16170319	      0.00000000	      0.00000000	     -0.00000000	      0.02027555	    -28.91554036	    -19.64937964	     -0.00000000	      7.17242349	     -7.68667222	     -5.48916965	    -13.97023568	      0.00000000	      0.00000000	     -0.00000000	     -0.24382661	     13.04610397	     18.44852985	      0.00000000	     -0.00000000	      0.00000000	      0.00000000
      2.30000000	      8.09682559	    -15.42582109	     99.80328439	      0.21811678	      0.84385663	      2.37781508	     41.61740597	      2.64591201	     30.01980019	      0.94002190	      0.00000000	     -0.00000000	      0.00000000	      0.01640648	    -28.35704575	    -19.64673866	      0.00000000	      6.78018565	     -8.03196384	     -5.45736965	    -14.14822811	     -0.00000000	      0.00000000	     -0.00000000	     -0.24693316	     12.75900975	     18.45736915	      0.00000000	     -0.00000000	      0.00000000	      0.00000000
      2.30500000	      8.29696933	    -15.31113053	     99.86999684	      0.21840051	      0.84341480	      2.37060892	     41.49320208	      2.93312118	     30.13302831	      0.63025860	     -0.00000000	     -0.00000000	      0.00000000	      0.01100009	    -27.81185984	    -19.64235313	     -0.00000000	      6.30694880	     -8.38367283	     -5.39793548	    -14.28742230	     -0.00000000	      0.00000000	     -0.00000000	     -0.24936256	     12.36130942	     18.46138070	      0.00000000	     -0.00000000	      0.00000000	      0.00000000
      2.31000000	      8.43521376	    -15.09557729	     99.94292041	      0.21864488	      0.84316126	      2.36331626	     41.21579469	      3.18271463	     30.24197763	      0.30344934	     -0.00000000	     -0.00000000	      0.00000000	      0.00529619	    -27.27345682	    -19.63795313	      0.00000000	      5.72527612	     -8.68333498	     -5.28385569	    -14.42606843	     -0.00000000	     -0.00000000	      0.00000000	     -0.25178239	     11.84655531	     18.41592233	     -0.00000000	     -0.00000000	      0.00000000	      0.00000000
      2.31500000	      8.73525822	    -14.99018920	     99.98122786	      0.21920809	      0.84264954	      2.35578090	     41.08008967	      3.64706478	     30.29846600	     -0.12518010	      0.00000000	     -0.00000000	      0.00000000	     -0.00218480	    -26.72949418	    -19.63047219	      0.00000000	      5.29280121	     -9.17984559	     -5.40156268	    -14.65085782	     -0.00000000	      0.00000000	      0.00000000	     -0.25570571	     11.39281391	     18.47471243	     -0.00000000	     -0.00000000	      0.00000000	      0.00000000
      2.32000000	      8.97800163	    -14.76930925	    100.03850885	      0.21971350	      0.84235662	      2.34811988	     40.77568857	      4.07019652	     30.32418465	     -0.56956248	      0.00000000	     -0.00000000	      0.00000000	     -0.00994074	    -26.16130008	    -19.62355166	      0.00000000	      4.73643724	     -9.62819498	     -5.43515339	    -14.87461508	     -0.00000000	      0.00000000	     -0.00000000	     -0.25961101	     10.79052042	     18.47012359	     -0.00000000	     -0.00000000	      0.00000000	      0.00000000
      2.32500000	      9.18374544	    -14.57286672	    100.05352985	      0.22032445	      0.84204484	      2.34040086	     40.48540496	      4.50263550	     30.36848952	     -1.05698078	      0.00000000	      0.00000000	     -0.00000000	     -0.01844779	    -25.68002282	    -19.61295931	     -0.00000000	      4.19417826	    -10.04277673	     -5.48095825	    -15.09566042	     -0.00000000	     -0.00000000	      0.00000000	     -0.26346898	     10.14148565	     18.47666411	     -0.00000000	     -0.00000000	      0.00000000	      0.00000000
      2.33000000	      9.39868274	    -14.30306231	    100.06681544	      0.22099806	      0.84183407	      2.33251885	     40.09642510	      4.97605639	     30.36041778	     -1.57807120	      0.00000000	     -0.00000000	      0.00000000	     -0.02754254	    -25.14490758	    -19.60179745	     -0.00000000	      3.58452564	    -10.48885595	     -5.55275911	    -15.34754582	      0.00000000	      0.00000000	     -0.00000000	     -0.26786521	      9.39845603	     18.46625110	      0.00000000	     -0.00000000	      0.00000000	      0.00000000
      2.33500000	      9.60324130	    -14.04466585	    100.04722749	      0.22176563	      0.84160376	      2.32453146	     39.70632026	      5.47574840	     30.35362228	     -2.13692172	      0.00000000	     -0.00000000	      0.00000000	     -0.03729632	    -24.59604920	    -19.58760468	      0.00000000	      2.99726949	    -10.93102421	     -5.68619561	    -15.64846283	     -0.00000000	      0.00000000	     -0.00000000	     -0.27311720	      8.60469784	     18.45563925	     -0.00000000	     -0.00000000	      0.00000000	      0.00000000
      2.34000000	      9.81396053	    -13.81303589	    100.03359469	      0.22260680	      0.84134327	      2.31646417	     39.33459273	      5.98592778	     30.27145828	     -2.71964023	     -0.00000000	      0.00000000	     -0.00000000	     -0.04746668	    -24.05510034	    -19.57071694	     -0.00000000	      2.46331555	    -11.38420560	     -5.84112961	    -15.99069068	     -0.00000000	      0.00000000	     -0.00000000	     -0.27909020	      7.74875684	     18.46032280	     -0.00000000	      0.00000000	     -0.00000000	      0.00000000
      2.34500000	      9.92307768	    -13.38995913	    100.01930894	      0.22341895	      0.84144780	      2.30836411	     38.72086153	      6.43128093	     30.16479015	     -3.29557799	      0.00000000	     -0.00000000	      0.00000000	     -0.05751869	    -23.49589611	    -19.54864402	     -0.00000000	      1.72887622	    -11.75710447	     -5.90465733	    -16.33881973	     -0.00000000	      0.00000000	     -0.00000000	     -0.28516620	      6.68552457	     18.40529598	     -0.00000000	     -0.00000000	     -0.00000000	     -0.00000000
      2.35000000	     10.15066382	    -13.14203408	     99.91887086	      0.22445242	      0.84119626	      2.30006445	     38.31527448	      7.03514679	     30.07039542	     -3.92955523	     -0.00000000	      0.00000000	     -0.00000000	     -0.06858368	    -22.88748075	    -19.52349316	      0.00000000	      1.18353504	    -12.24518779	     -6.21185325	    -16.76006691	      0.00000000	     -0.00000000	      0.00000000	     -0.29251835	      5.77735314	     18.37700806	     -0.00000000	     -0.00000000	     -0.00000000	     -0.00000000
